<svg width="78" height="30" viewBox="0 0 78 30" fill="none" xmlns="http://www.w3.org/2000/svg">
<path d="M5.688 29C5.328 29 5.016 28.88 4.752 28.64C4.488 28.376 4.356 28.028 4.356 27.596V9.344C4.356 7.664 4.644 6.188 5.22 4.916C5.796 3.644 6.648 2.66 7.776 1.964C8.904 1.244 10.284 0.883999 11.916 0.883999C12.324 0.883999 12.66 1.004 12.924 1.244C13.188 1.484 13.32 1.784 13.32 2.144C13.32 2.504 13.188 2.804 12.924 3.044C12.66 3.284 12.324 3.404 11.916 3.404C10.836 3.404 9.936 3.656 9.216 4.16C8.52 4.64 7.992 5.324 7.632 6.212C7.296 7.076 7.128 8.072 7.128 9.2V27.596C7.128 28.028 6.996 28.376 6.732 28.64C6.492 28.88 6.144 29 5.688 29ZM2.052 12.44C1.668 12.44 1.356 12.332 1.116 12.116C0.9 11.876 0.792 11.588 0.792 11.252C0.792 10.892 0.9 10.604 1.116 10.388C1.356 10.148 1.668 10.028 2.052 10.028H11.448C11.832 10.028 12.132 10.148 12.348 10.388C12.588 10.604 12.708 10.892 12.708 11.252C12.708 11.588 12.588 11.876 12.348 12.116C12.132 12.332 11.832 12.44 11.448 12.44H2.052ZM24.9916 29.216C23.2876 29.216 21.7636 28.868 20.4196 28.172C19.0756 27.452 18.0076 26.408 17.2156 25.04C16.4476 23.672 16.0636 22.004 16.0636 20.036V10.676C16.0636 10.292 16.1956 9.968 16.4596 9.704C16.7236 9.44 17.0476 9.308 17.4316 9.308C17.8396 9.308 18.1756 9.44 18.4396 9.704C18.7036 9.968 18.8356 10.292 18.8356 10.676V20.036C18.8356 21.524 19.1116 22.748 19.6636 23.708C20.2396 24.668 21.0076 25.388 21.9676 25.868C22.9516 26.348 24.0556 26.588 25.2796 26.588C26.4556 26.588 27.5116 26.36 28.4476 25.904C29.4076 25.448 30.1636 24.824 30.7156 24.032C31.2676 23.24 31.5436 22.34 31.5436 21.332H33.5236C33.4516 22.844 33.0316 24.2 32.2636 25.4C31.5196 26.576 30.5116 27.512 29.2396 28.208C27.9676 28.88 26.5516 29.216 24.9916 29.216ZM32.9116 29C32.5036 29 32.1676 28.88 31.9036 28.64C31.6636 28.376 31.5436 28.028 31.5436 27.596V10.676C31.5436 10.268 31.6636 9.944 31.9036 9.704C32.1676 9.44 32.5036 9.308 32.9116 9.308C33.3196 9.308 33.6556 9.44 33.9196 9.704C34.1836 9.944 34.3156 10.268 34.3156 10.676V27.596C34.3156 28.028 34.1836 28.376 33.9196 28.64C33.6556 28.88 33.3196 29 32.9116 29ZM47.6629 29.18C46.2469 29.18 44.8429 28.94 43.4509 28.46C42.0589 27.98 40.9309 27.26 40.0669 26.3C39.8029 26.012 39.6949 25.688 39.7429 25.328C39.7909 24.968 39.9709 24.656 40.2829 24.392C40.6189 24.152 40.9669 24.056 41.3269 24.104C41.6869 24.152 41.9869 24.308 42.2269 24.572C42.8029 25.244 43.5589 25.76 44.4949 26.12C45.4549 26.48 46.5109 26.66 47.6629 26.66C49.4389 26.66 50.7229 26.36 51.5149 25.76C52.3069 25.136 52.7149 24.392 52.7389 23.528C52.7389 22.664 52.3309 21.956 51.5149 21.404C50.6989 20.828 49.3549 20.384 47.4829 20.072C45.0589 19.688 43.2829 19.016 42.1549 18.056C41.0269 17.096 40.4629 15.956 40.4629 14.636C40.4629 13.412 40.7869 12.392 41.4349 11.576C42.0829 10.76 42.9469 10.148 44.0269 9.74C45.1069 9.332 46.2949 9.128 47.5909 9.128C49.1989 9.128 50.5789 9.404 51.7309 9.956C52.9069 10.508 53.8549 11.252 54.5749 12.188C54.8149 12.5 54.9109 12.824 54.8629 13.16C54.8149 13.496 54.6229 13.772 54.2869 13.988C53.9989 14.156 53.6629 14.216 53.2789 14.168C52.9189 14.096 52.6069 13.916 52.3429 13.628C51.7429 12.932 51.0469 12.428 50.2549 12.116C49.4629 11.78 48.5509 11.612 47.5189 11.612C46.1989 11.612 45.1429 11.888 44.3509 12.44C43.5589 12.968 43.1629 13.64 43.1629 14.456C43.1629 15.008 43.3069 15.488 43.5949 15.896C43.9069 16.304 44.4229 16.664 45.1429 16.976C45.8869 17.288 46.9189 17.552 48.2389 17.768C50.0389 18.056 51.4549 18.488 52.4869 19.064C53.5429 19.616 54.2869 20.276 54.7189 21.044C55.1749 21.788 55.4029 22.604 55.4029 23.492C55.4029 24.62 55.0669 25.616 54.3949 26.48C53.7469 27.32 52.8349 27.98 51.6589 28.46C50.5069 28.94 49.1749 29.18 47.6629 29.18ZM69.1211 29.18C67.1771 29.18 65.4491 28.76 63.9371 27.92C62.4491 27.056 61.2731 25.868 60.4091 24.356C59.5691 22.844 59.1491 21.116 59.1491 19.172C59.1491 17.204 59.5451 15.476 60.3371 13.988C61.1531 12.476 62.2691 11.288 63.6851 10.424C65.1011 9.56 66.7331 9.128 68.5811 9.128C70.4051 9.128 71.9891 9.548 73.3331 10.388C74.7011 11.204 75.7571 12.344 76.5011 13.808C77.2451 15.272 77.6171 16.94 77.6171 18.812C77.6171 19.196 77.4971 19.508 77.2571 19.748C77.0171 19.964 76.7051 20.072 76.3211 20.072H61.0211V17.768H76.6091L75.0611 18.884C75.0851 17.492 74.8331 16.244 74.3051 15.14C73.7771 14.036 73.0211 13.172 72.0371 12.548C71.0771 11.924 69.9251 11.612 68.5811 11.612C67.2131 11.612 66.0131 11.936 64.9811 12.584C63.9491 13.232 63.1451 14.132 62.5691 15.284C62.0171 16.412 61.7411 17.708 61.7411 19.172C61.7411 20.636 62.0531 21.932 62.6771 23.06C63.3251 24.188 64.2011 25.076 65.3051 25.724C66.4091 26.372 67.6811 26.696 69.1211 26.696C69.9851 26.696 70.8491 26.552 71.7131 26.264C72.6011 25.952 73.3091 25.568 73.8371 25.112C74.1011 24.896 74.4011 24.788 74.7371 24.788C75.0731 24.764 75.3611 24.848 75.6011 25.04C75.9131 25.328 76.0691 25.64 76.0691 25.976C76.0931 26.312 75.9611 26.6 75.6731 26.84C74.8811 27.512 73.8731 28.076 72.6491 28.532C71.4251 28.964 70.2491 29.18 69.1211 29.18Z" fill="white"/>
</svg>
